<svg width="22" height="22" viewBox="0 0 22 22" fill="none" xmlns="http://www.w3.org/2000/svg">
  <path d="M6.4004 9.6006C5.81126 9.6006 5.33367 10.0782 5.33367 10.6673C5.33367 11.2565 5.81126 11.7341 6.4004 11.7341L14.9343 11.7341C15.5234 11.7341 16.001 11.2565 16.001 10.6673C16.001 10.0782 15.5234 9.6006 14.9343 9.6006L6.4004 9.6006Z" fill="#7D7D7D" />
  <path fill-rule="evenodd" clip-rule="evenodd" d="M4.26693 0C1.91037 0 0 1.91037 0 4.26693V17.0677C0 19.4243 1.91037 21.3347 4.26693 21.3347H17.0677C19.4243 21.3347 21.3347 19.4243 21.3347 17.0677V4.26693C21.3347 1.91037 19.4243 0 17.0677 0H4.26693ZM2.13347 4.26693C2.13347 3.08865 3.08865 2.13347 4.26693 2.13347H17.0677C18.246 2.13347 19.2012 3.08865 19.2012 4.26693V17.0677C19.2012 18.246 18.246 19.2012 17.0677 19.2012H4.26693C3.08865 19.2012 2.13347 18.246 2.13347 17.0677V4.26693Z" fill="#7D7D7D" />
</svg>