<svg width="22" height="22" viewBox="0 0 22 22" fill="none" xmlns="http://www.w3.org/2000/svg">
  <path d="M7.15907 7.02487L7.1596 7.02537C7.33181 6.84658 7.36521 6.68038 7.3174 6.52521C6.9016 5.26362 6.68951 3.93333 6.68951 2.57895C6.68951 2.34378 6.49757 2.15262 6.26318 2.15262H2.57895C2.34456 2.15262 2.15262 2.34378 2.15262 2.57895C2.15262 12.1006 9.89942 19.8474 19.4211 19.8474C19.6554 19.8474 19.8474 19.6562 19.8474 19.4211L19.8475 15.7474C19.8475 15.5122 19.6555 15.321 19.4212 15.321C18.0654 15.321 16.7348 15.1089 15.4656 14.6897L15.4655 14.6897C15.3138 14.6394 15.1457 14.6786 15.0313 14.7913L15.022 14.8004L15.0215 14.7997L12.4299 16.7639C12.2385 16.909 11.9793 16.932 11.7669 16.8215C11.7667 16.8215 11.7666 16.8214 11.7665 16.8213L11.8127 16.7326C8.72427 15.1505 6.82844 13.2537 5.26741 10.1874L7.15907 7.02487ZM7.15907 7.02487L7.15182 7.03448L5.23601 9.5713L5.23587 9.57149C5.09202 9.7629 5.0693 10.0196 5.17829 10.2327L7.15907 7.02487ZM8.51127 6.14176L8.51129 6.14176L8.51079 6.14026C8.13413 4.99889 7.94213 3.80001 7.94213 2.57895C7.94213 1.65318 7.18895 0.9 6.26318 0.9H2.57895C1.65318 0.9 0.9 1.65318 0.9 2.57895C0.9 12.791 9.20899 21.1 19.4211 21.1C20.3468 21.1 21.1 20.3468 21.1 19.4211V15.7474C21.1 14.8216 20.3468 14.0684 19.4211 14.0684C18.198 14.0684 17.0004 13.8775 15.8645 13.5021C15.2744 13.299 14.6033 13.452 14.2056 13.8519L11.9919 15.5238C9.45608 14.1597 7.82262 12.5272 6.4751 10.0082L8.10106 7.84774C8.54373 7.40033 8.70156 6.75043 8.51127 6.14176Z" fill="#5A5A5A" stroke="#5A5A5A" stroke-width="0.2" />
</svg>