<svg width="22" height="22" viewBox="0 0 22 22" fill="none" xmlns="http://www.w3.org/2000/svg">
  <path d="M10.763 16.001C10.1739 16.001 9.69631 15.5234 9.69631 14.9343V11.7341H6.4961C5.90696 11.7341 5.42937 11.2565 5.42937 10.6673C5.42937 10.0782 5.90696 9.6006 6.4961 9.6006H9.69631V6.4004C9.69631 5.81126 10.1739 5.33367 10.763 5.33367C11.3522 5.33367 11.8298 5.81126 11.8298 6.4004V9.6006L15.03 9.6006C15.6191 9.6006 16.0967 10.0782 16.0967 10.6673C16.0967 11.2565 15.6191 11.7341 15.03 11.7341L11.8298 11.7341V14.9343C11.8298 15.5234 11.3522 16.001 10.763 16.001Z" fill="#7D7D7D" />
  <path fill-rule="evenodd" clip-rule="evenodd" d="M4.36264 0C2.00607 0 0.0957031 1.91037 0.0957031 4.26693V17.0677C0.0957031 19.4243 2.00608 21.3347 4.36264 21.3347H17.1634C19.52 21.3347 21.4304 19.4243 21.4304 17.0677V4.26693C21.4304 1.91037 19.52 0 17.1634 0H4.36264ZM2.22917 4.26693C2.22917 3.08865 3.18436 2.13347 4.36264 2.13347H17.1634C18.3417 2.13347 19.2969 3.08865 19.2969 4.26693V17.0677C19.2969 18.246 18.3417 19.2012 17.1634 19.2012H4.36264C3.18436 19.2012 2.22917 18.246 2.22917 17.0677V4.26693Z" fill="#7D7D7D" />
</svg>